<svg width="498" height="50" viewBox="0 0 498 50" fill="none" xmlns="http://www.w3.org/2000/svg">
<rect x="1.5" y="1.5" width="495" height="47" stroke="#292929" stroke-width="3"/>
<path d="M224.088 27.6514C224.088 27.4229 224.053 27.2178 223.983 27.0361C223.918 26.8486 223.795 26.6787 223.613 26.5264C223.432 26.3682 223.177 26.2129 222.849 26.0605C222.521 25.9082 222.096 25.75 221.574 25.5859C220.994 25.3984 220.443 25.1875 219.922 24.9531C219.406 24.7188 218.949 24.4463 218.551 24.1357C218.158 23.8193 217.848 23.4531 217.619 23.0371C217.397 22.6211 217.285 22.1377 217.285 21.5869C217.285 21.0537 217.402 20.5703 217.637 20.1367C217.871 19.6973 218.199 19.3223 218.621 19.0117C219.043 18.6953 219.541 18.4521 220.115 18.2822C220.695 18.1123 221.331 18.0273 222.023 18.0273C222.966 18.0273 223.789 18.1973 224.492 18.5371C225.195 18.877 225.74 19.3428 226.127 19.9346C226.52 20.5264 226.716 21.2031 226.716 21.9648H224.097C224.097 21.5898 224.018 21.2617 223.859 20.9805C223.707 20.6934 223.473 20.4678 223.156 20.3037C222.846 20.1396 222.453 20.0576 221.979 20.0576C221.522 20.0576 221.141 20.1279 220.836 20.2686C220.531 20.4033 220.303 20.5879 220.15 20.8223C219.998 21.0508 219.922 21.3086 219.922 21.5957C219.922 21.8125 219.975 22.0088 220.08 22.1846C220.191 22.3604 220.356 22.5244 220.572 22.6768C220.789 22.8291 221.056 22.9727 221.372 23.1074C221.689 23.2422 222.055 23.374 222.471 23.5029C223.168 23.7139 223.78 23.9512 224.308 24.2148C224.841 24.4785 225.286 24.7744 225.644 25.1025C226.001 25.4307 226.271 25.8027 226.452 26.2188C226.634 26.6348 226.725 27.1064 226.725 27.6338C226.725 28.1904 226.616 28.6885 226.4 29.1279C226.183 29.5674 225.869 29.9395 225.459 30.2441C225.049 30.5488 224.56 30.7803 223.991 30.9385C223.423 31.0967 222.787 31.1758 222.084 31.1758C221.451 31.1758 220.827 31.0938 220.212 30.9297C219.597 30.7598 219.037 30.5049 218.533 30.165C218.035 29.8252 217.637 29.3916 217.338 28.8643C217.039 28.3369 216.89 27.7129 216.89 26.9922H219.535C219.535 27.3906 219.597 27.7275 219.72 28.0029C219.843 28.2783 220.016 28.501 220.238 28.6709C220.467 28.8408 220.736 28.9639 221.047 29.04C221.363 29.1162 221.709 29.1543 222.084 29.1543C222.541 29.1543 222.916 29.0898 223.209 28.9609C223.508 28.832 223.728 28.6533 223.868 28.4248C224.015 28.1963 224.088 27.9385 224.088 27.6514ZM235.584 18.2031H238.212V26.6582C238.212 27.6426 238.001 28.4717 237.579 29.1455C237.163 29.8193 236.586 30.3262 235.848 30.666C235.115 31.0059 234.272 31.1758 233.316 31.1758C232.361 31.1758 231.512 31.0059 230.768 30.666C230.029 30.3262 229.449 29.8193 229.027 29.1455C228.611 28.4717 228.403 27.6426 228.403 26.6582V18.2031H231.04V26.6582C231.04 27.2324 231.131 27.7012 231.313 28.0645C231.494 28.4277 231.755 28.6943 232.095 28.8643C232.441 29.0342 232.848 29.1191 233.316 29.1191C233.797 29.1191 234.204 29.0342 234.538 28.8643C234.878 28.6943 235.136 28.4277 235.312 28.0645C235.493 27.7012 235.584 27.2324 235.584 26.6582V18.2031ZM245.393 25.3838H242.106L242.088 23.5732H244.848C245.334 23.5732 245.733 23.5117 246.043 23.3887C246.354 23.2598 246.585 23.0752 246.737 22.835C246.896 22.5889 246.975 22.29 246.975 21.9385C246.975 21.54 246.899 21.2178 246.746 20.9717C246.6 20.7256 246.368 20.5469 246.052 20.4355C245.741 20.3242 245.34 20.2686 244.848 20.2686H243.02V31H240.383V18.2031H244.848C245.592 18.2031 246.257 18.2734 246.843 18.4141C247.435 18.5547 247.936 18.7686 248.346 19.0557C248.756 19.3428 249.069 19.7061 249.286 20.1455C249.503 20.5791 249.611 21.0947 249.611 21.6924C249.611 22.2197 249.491 22.7061 249.251 23.1514C249.017 23.5967 248.645 23.96 248.135 24.2412C247.631 24.5225 246.972 24.6777 246.157 24.707L245.393 25.3838ZM245.278 31H241.385L242.413 28.9434H245.278C245.741 28.9434 246.119 28.8701 246.412 28.7236C246.705 28.5713 246.922 28.3662 247.063 28.1084C247.203 27.8506 247.274 27.5547 247.274 27.2207C247.274 26.8457 247.209 26.5205 247.08 26.2451C246.957 25.9697 246.758 25.7588 246.483 25.6123C246.207 25.46 245.844 25.3838 245.393 25.3838H242.853L242.87 23.5732H246.034L246.641 24.2852C247.42 24.2734 248.047 24.4111 248.522 24.6982C249.002 24.9795 249.351 25.3457 249.567 25.7969C249.79 26.248 249.901 26.7314 249.901 27.2471C249.901 28.0674 249.723 28.7588 249.365 29.3213C249.008 29.8779 248.483 30.2969 247.792 30.5781C247.107 30.8594 246.269 31 245.278 31ZM253.083 18.2031H255.316L258.603 27.5986L261.89 18.2031H264.122L259.499 31H257.706L253.083 18.2031ZM251.879 18.2031H254.103L254.507 27.3613V31H251.879V18.2031ZM263.103 18.2031H265.335V31H262.698V27.3613L263.103 18.2031ZM270.45 18.2031V31H267.822V18.2031H270.45ZM278.378 18.2031V31H275.75V18.2031H278.378ZM282.316 18.2031V20.2686H271.874V18.2031H282.316Z" fill="#292929"/>
</svg>
